<svg width="32" height="32" viewBox="0 0 32 32" fill="none" xmlns="http://www.w3.org/2000/svg">
<path d="M16 28C14.3333 28 12.7722 27.6833 11.3167 27.05C9.86111 26.4167 8.59444 25.5611 7.51667 24.4833C6.43889 23.4056 5.58333 22.1389 4.95 20.6833C4.31667 19.2278 4 17.6667 4 16C4 14.3333 4.31667 12.7722 4.95 11.3167C5.58333 9.86111 6.43889 8.59444 7.51667 7.51667C8.59444 6.43889 9.86111 5.58333 11.3167 4.95C12.7722 4.31667 14.3333 4 16 4V6.66667C13.4 6.66667 11.1944 7.57222 9.38333 9.38333C7.57222 11.1944 6.66667 13.4 6.66667 16C6.66667 18.6 7.57222 20.8056 9.38333 22.6167C11.1944 24.4278 13.4 25.3333 16 25.3333V28ZM21.3333 22.6667L19.4667 20.7667L22.9 17.3333H12V14.6667H22.9L19.4667 11.2L21.3333 9.33333L28 16L21.3333 22.6667Z" fill="#CF2923"/>
</svg>
