<svg width="70" height="70" viewBox="0 0 70 70" fill="none" xmlns="http://www.w3.org/2000/svg">
<path d="M51.3333 56H18.6667V58.3333C18.6667 59.64 17.64 60.6666 16.3333 60.6666H2.33333C1.02667 60.6666 0 59.64 0 58.3333V51.3333H70V58.3333C70 59.64 68.9733 60.6666 67.6667 60.6666H53.6667C52.36 60.6666 51.3333 59.64 51.3333 58.3333V56ZM42 14V11.6666C42 10.36 43.0267 9.33331 44.3333 9.33331H58.3333C59.64 9.33331 60.6667 10.36 60.6667 11.6666V14H67.6667C68.9733 14 70 15.0266 70 16.3333V18.6666H0V16.3333C0 15.0266 1.02667 14 2.33333 14H42ZM23.3333 49V30.3333C23.3333 29.0266 22.3067 28 21 28H11.6667C10.36 28 9.33333 29.0266 9.33333 30.3333V49H0V21H70V49H23.3333ZM42 28H32.6667V37.3333H42V28ZM60.6667 28H51.3333V37.3333H60.6667V28Z" fill="white"/>
</svg>
