<svg width="24" height="24" viewBox="0 0 24 24" fill="none" xmlns="http://www.w3.org/2000/svg">
<path d="M12.001 15L16.001 11H8.00098L12.001 15ZM12.001 22C10.6176 22 9.31764 21.7375 8.10098 21.2125C6.88431 20.6875 5.82598 19.975 4.92598 19.075C4.02598 18.175 3.31348 17.1167 2.78848 15.9C2.26348 14.6833 2.00098 13.3833 2.00098 12C2.00098 10.6167 2.26348 9.31667 2.78848 8.1C3.31348 6.88333 4.02598 5.825 4.92598 4.925C5.82598 4.025 6.88431 3.3125 8.10098 2.7875C9.31764 2.2625 10.6176 2 12.001 2C13.3843 2 14.6843 2.2625 15.901 2.7875C17.1176 3.3125 18.176 4.025 19.076 4.925C19.976 5.825 20.6885 6.88333 21.2135 8.1C21.7385 9.31667 22.001 10.6167 22.001 12C22.001 13.3833 21.7385 14.6833 21.2135 15.9C20.6885 17.1167 19.976 18.175 19.076 19.075C18.176 19.975 17.1176 20.6875 15.901 21.2125C14.6843 21.7375 13.3843 22 12.001 22Z" fill="#E31C26"/>
</svg>
