<svg width="32" height="32" viewBox="0 0 32 32" fill="none" xmlns="http://www.w3.org/2000/svg">
<path d="M5.33341 26.6663C4.60008 26.6663 3.9723 26.4052 3.45008 25.883C2.92786 25.3608 2.66675 24.733 2.66675 23.9997V7.99967C2.66675 7.26634 2.92786 6.63856 3.45008 6.11634C3.9723 5.59412 4.60008 5.33301 5.33341 5.33301H26.6667C27.4001 5.33301 28.0279 5.59412 28.5501 6.11634C29.0723 6.63856 29.3334 7.26634 29.3334 7.99967V23.9997C29.3334 24.733 29.0723 25.3608 28.5501 25.883C28.0279 26.4052 27.4001 26.6663 26.6667 26.6663H5.33341ZM16.0001 17.333L26.6667 10.6663V7.99967L16.0001 14.6663L5.33341 7.99967V10.6663L16.0001 17.333Z" fill="#04217B"/>
</svg>
