<svg width="70" height="70" viewBox="0 0 70 70" fill="none" xmlns="http://www.w3.org/2000/svg">
<path d="M56.8634 40.7837L62.5975 50.7179C62.8342 51.1268 62.968 51.5871 62.9874 52.0591C63.0069 52.5312 62.9113 53.0009 62.709 53.4278C62.5067 53.8548 62.2038 54.2262 61.8262 54.5102C61.4485 54.7941 61.0076 54.9821 60.5413 55.0579L60.2117 55.09L59.885 55.0871L51.3304 54.5329L47.53 62.2212C47.3242 62.638 47.0217 62.9996 46.6478 63.2758C46.2739 63.552 45.8393 63.7348 45.3804 63.809C44.9215 63.8832 44.4516 63.8466 44.0097 63.7023C43.5678 63.5581 43.1667 63.3103 42.84 62.9796L42.6009 62.7054L42.3909 62.3846L36.6509 52.4475C40.6912 52.1936 44.6181 51.0086 48.1245 48.9852C51.6309 46.9618 54.6218 44.1548 56.8634 40.7837ZM33.3375 52.4475L27.6034 62.3875C27.3715 62.7907 27.0465 63.1326 26.6555 63.3847C26.2646 63.6367 25.819 63.7916 25.356 63.8364C24.893 63.8813 24.426 63.8147 23.994 63.6423C23.562 63.4699 23.1775 63.1967 22.8725 62.8454L22.6509 62.5537L22.4642 62.2212L18.6609 54.5358L10.1121 55.09C9.64102 55.121 9.16944 55.0371 8.73789 54.8457C8.30634 54.6542 7.92772 54.3609 7.63454 53.9908C7.34137 53.6207 7.1424 53.1851 7.05475 52.7212C6.96709 52.2572 6.99335 51.779 7.13128 51.3275L7.24795 51.0154L7.39378 50.7237L13.1338 40.7808C15.3738 44.1519 18.3631 46.9593 21.8679 48.9837C25.3727 51.008 29.2982 52.1916 33.3375 52.4475ZM35 5.83331L35.7 5.84498C40.9906 6.02648 46.0039 8.25578 49.6823 12.0626C53.3608 15.8695 55.4168 20.9563 55.4167 26.25L55.4079 26.8129L55.3875 27.3729L55.335 28.0875L55.2592 28.7933L55.1892 29.3125C54.997 30.5714 54.6875 31.8096 54.2646 33.0108L53.9263 33.9091L53.48 34.9241C51.8288 38.4416 49.2083 41.4149 45.9261 43.4949C42.6439 45.5749 38.8364 46.6752 34.9507 46.6666C31.065 46.6581 27.2623 45.541 23.9894 43.4465C20.7164 41.352 18.109 38.3672 16.4734 34.8425L16.0942 33.9762L15.9425 33.5883L15.7092 32.9554L15.4321 32.0979C15.3332 31.7658 15.2428 31.4313 15.1609 31.0946L14.9859 30.3041L14.8429 29.5137L14.7846 29.1083L14.6709 28.1662L14.6009 27.1016L14.5834 26.25C14.5833 20.9563 16.6393 15.8695 20.3177 12.0626C23.9962 8.25578 29.0095 6.02648 34.3 5.84498L35 5.83331Z" fill="white"/>
</svg>
