<svg width="32" height="32" viewBox="0 0 32 32" fill="none" xmlns="http://www.w3.org/2000/svg">
<path d="M5.4 28C5 28 4.66667 27.8667 4.4 27.6C4.13333 27.3333 4 27 4 26.6V21.2C4 20.9111 4.1 20.65 4.3 20.4167C4.5 20.1833 4.75556 20.0222 5.06667 19.9333L9.66667 19C9.97778 18.9556 10.2944 18.9833 10.6167 19.0833C10.9389 19.1833 11.2 19.3333 11.4 19.5333L14.5333 22.6667C15.3778 22.1778 16.1778 21.6389 16.9333 21.05C17.6889 20.4611 18.4111 19.8222 19.1 19.1333C19.8333 18.4222 20.5056 17.6833 21.1167 16.9167C21.7278 16.15 22.2556 15.3556 22.7 14.5333L19.4667 11.2667C19.2889 11.0889 19.1667 10.8778 19.1 10.6333C19.0333 10.3889 19.0222 10.0889 19.0667 9.73333L19.9333 5.06667C19.9778 4.77778 20.1222 4.52778 20.3667 4.31667C20.6111 4.10556 20.8889 4 21.2 4H26.6C27 4 27.3333 4.13333 27.6 4.4C27.8667 4.66667 28 5 28 5.4C28 8.17778 27.3944 10.9222 26.1833 13.6333C24.9722 16.3444 23.2556 18.8111 21.0333 21.0333C18.8111 23.2556 16.3444 24.9722 13.6333 26.1833C10.9222 27.3944 8.17778 28 5.4 28Z" fill="#04217B"/>
</svg>
