<svg width="70" height="70" viewBox="0 0 70 70" fill="none" xmlns="http://www.w3.org/2000/svg">
<path d="M27.708 48.125L48.1247 35L27.708 21.875V48.125ZM34.9997 64.1667C30.965 64.1667 27.1733 63.4011 23.6247 61.8698C20.0761 60.3386 16.9893 58.2604 14.3643 55.6354C11.7393 53.0104 9.66113 49.9236 8.12988 46.375C6.59863 42.8264 5.83301 39.0347 5.83301 35C5.83301 30.9653 6.59863 27.1736 8.12988 23.625C9.66113 20.0764 11.7393 16.9896 14.3643 14.3646C16.9893 11.7396 20.0761 9.66147 23.6247 8.13022C27.1733 6.59897 30.965 5.83334 34.9997 5.83334C39.0344 5.83334 42.8261 6.59897 46.3747 8.13022C49.9233 9.66147 53.0101 11.7396 55.6351 14.3646C58.2601 16.9896 60.3382 20.0764 61.8695 23.625C63.4007 27.1736 64.1663 30.9653 64.1663 35C64.1663 39.0347 63.4007 42.8264 61.8695 46.375C60.3382 49.9236 58.2601 53.0104 55.6351 55.6354C53.0101 58.2604 49.9233 60.3386 46.3747 61.8698C42.8261 63.4011 39.0344 64.1667 34.9997 64.1667Z" fill="white"/>
</svg>
