<svg width="27" height="21" viewBox="0 0 27 21" fill="none" xmlns="http://www.w3.org/2000/svg">
<path d="M24.5653 12.0771C26.1884 12.0771 27 12.7084 27 13.9711V19.106C27 20.3687 26.1884 21 24.5653 21H18.2892C16.666 21 15.8545 20.3687 15.8545 19.106V13.9711C15.8545 11.0248 16.2512 8.45739 17.0448 6.26875C17.8744 4.05205 19.4795 2.11594 21.8601 0.460431C22.6536 -0.0726997 23.3209 -0.142848 23.8619 0.249985L26.2966 2.01773C26.8377 2.41057 26.7114 2.88758 25.9179 3.44877C24.6915 4.29056 23.6816 5.51114 22.8881 7.11054C22.5459 7.8204 22.281 8.54744 22.0934 9.29166C21.7136 10.7983 23.0115 12.0771 24.5653 12.0771ZM8.71082 12.0771C10.334 12.0771 11.1455 12.7084 11.1455 13.9711V19.106C11.1455 20.3687 10.334 21 8.71082 21H2.4347C0.811567 21 0 20.3687 0 19.106V13.9711C0 11.0248 0.396766 8.45739 1.1903 6.26875C2.0199 4.05205 3.625 2.11594 6.0056 0.460431C6.79913 -0.0726997 7.46642 -0.142848 8.00746 0.249985L10.4422 2.01773C10.9832 2.41057 10.857 2.88758 10.0634 3.44877C8.83707 4.29056 7.82712 5.51114 7.03358 7.11054C6.69139 7.8204 6.4265 8.54744 6.23889 9.29167C5.85909 10.7983 7.15701 12.0771 8.71082 12.0771Z" fill="white" fill-opacity="0.3"/>
</svg>
