<svg width="144" height="24" viewBox="0 0 144 24" fill="none" xmlns="http://www.w3.org/2000/svg">
<path d="M5.825 21L7.45 13.975L2 9.25L9.2 8.625L12 2L14.8 8.625L22 9.25L16.55 13.975L18.175 21L12 17.275L5.825 21Z" fill="#FCC214"/>
<path d="M35.825 21L37.45 13.975L32 9.25L39.2 8.625L42 2L44.8 8.625L52 9.25L46.55 13.975L48.175 21L42 17.275L35.825 21Z" fill="#FCC214"/>
<path d="M65.825 21L67.45 13.975L62 9.25L69.2 8.625L72 2L74.8 8.625L82 9.25L76.55 13.975L78.175 21L72 17.275L65.825 21Z" fill="#FCC214"/>
<path d="M95.825 21L97.45 13.975L92 9.25L99.2 8.625L102 2L104.8 8.625L112 9.25L106.55 13.975L108.175 21L102 17.275L95.825 21Z" fill="#FCC214"/>
<path d="M125.825 21L127.45 13.975L122 9.25L129.2 8.625L132 2L134.8 8.625L142 9.25L136.55 13.975L138.175 21L132 17.275L125.825 21Z" fill="#FCC214"/>
</svg>
